<?xml version="1.0" encoding="utf-8"?>
<!-- Generator: Adobe Illustrator 19.2.1, SVG Export Plug-In . SVG Version: 6.00 Build 0)  -->
<svg version="1.0" id="Layer_1" xmlns="http://www.w3.org/2000/svg" xmlns:xlink="http://www.w3.org/1999/xlink" x="0px" y="0px"
	 width="1400px" height="980px" viewBox="0 0 1400 980" enable-background="new 0 0 1400 980" xml:space="preserve">
<g>
	<linearGradient id="SVGID_1_" gradientUnits="userSpaceOnUse" x1="0" y1="266" x2="1400" y2="266">
		<stop  offset="0" style="stop-color:#FFFFFF"/>
		<stop  offset="1" style="stop-color:#29ABE2"/>
	</linearGradient>
	<polygon fill="url(#SVGID_1_)" points="1400,532 1400,0 0,0 0,320.6 	"/>
	<linearGradient id="SVGID_2_" gradientUnits="userSpaceOnUse" x1="674.3911" y1="49.1656" x2="1295.4536" y2="124.1731">
		<stop  offset="0" style="stop-color:#FFFFFF"/>
		<stop  offset="1" style="stop-color:#29ABE2"/>
	</linearGradient>
	<path fill="url(#SVGID_2_)" d="M790.9,86.9c26.9-2.1,49.8-27.5,78-29.6c28.2-2.1,71.6-6.3,79.3-14.8c7.7-8.5,23-27.5,42.2-27.5
		c19.2,0,19.6,0,19.6,0s-3.4,31.9,30.1,46.8s64.2-12.8,84.7,4.1s23,36,30.7,46.6c7.7,10.6,66.5,19.1,69.1,25.4
		c2.6,6.4,5.1,28.6,20.5,31.2c15.4,2.7,117.7,17.3,117.7,17.3s5.1,17.2-53.7,13c-58.9-4.2-163.8-41.6-176.6-42
		c-12.8-0.4-61.4,15.4-81.9,11.8c-20.5-3.7-61.4-27-60.1-39.8c1.3-12.7,32-19.1,24.3-31.8c-7.7-12.7-17.9-29.7-35.8-27.6
		s-17.9,21.2-43.5,25.5c-25.6,4.2-61.4-8.8-61.4-8.8L790.9,86.9z"/>
	<linearGradient id="SVGID_3_" gradientUnits="userSpaceOnUse" x1="277.8271" y1="106.1582" x2="1180.9198" y2="280.176">
		<stop  offset="0" style="stop-color:#FFFFFF"/>
		<stop  offset="1" style="stop-color:#29ABE2"/>
	</linearGradient>
	<path fill="url(#SVGID_3_)" d="M1400,384L521,233.7c0,0,44-22,54-14.8c10,7.1,29.7,5.1,38.9-8.9c9.1-14,19.1-24,27.1-40
		s36.6-10,35.3,0c-1.3,10,12,14.4,6.4,30.2c-5.6,15.8,21.5,11.5,28.9,18.7c7.4,7.1,26.9-12.5,43.1-18.7c16.3-6.2,27.4,0,27.4,0
		l15.7,33.5L838,234l53.5,17.6l44.8-32.6l60.6-28.5c0,0,77.2-35.5,63.7,0s-0.5,50.7,2,61.1c2.5,10.4,11.7,36.6,11.7,36.6
		s29.8-6.2,34.3,8.6s40.3-2.4,49.4-8.6c9.1-6.2,17.1-9.8,27.1,0c10,9.8,24,23.4,24,23.4l44.9,5.9c0,0,32-12.5,33.5,0
		C1289,330,1291,342,1302,342S1400,384,1400,384z"/>
	<polygon fill="#FFF3A8" points="1400,682.9 0,370.5 0,980 1400,980 	"/>
	<g>
		<polygon fill="#A8D5A8" points="1400,532 1171,391 1113,311.6 1027.5,266 987,206.6 919,120 837,204 743.5,236.6 650,317.5 
			468,256 368.7,169.9 228.5,278.6 187.4,251.6 109.5,323.6 0,276 0,370.5 1400,682.9 		"/>
		<path fill="#9ED09E" d="M1399.9,661.9l-92.7-96.7l-94.7-61.6l-60.1-61.8l-19.4,34V517l-84-75.2l-79.7,0L936.3,398l-22.8-51
			l-60.8,51l9.7,53.8l-138.4-37l-38-25.4l-26.3,44.1L613,391.6l-9.5-21.1L576,418.7L458,414l-58-16l-29-27.5c0,0-2.5-18.5-8.3-28.5
			S342,288.2,342,288.2V370l-46.6-7.7L287,347l-8.4-50.2l-33,50.2L220,328l-25,19.4l-68.3,14.9L0,347l1067.5,262l332.5,73.9
			L1399.9,661.9z"/>
		<polygon fill="#B4E6B4" points="1113,311.6 987,398 1113,377.6 1155.6,407 1302,471.7 1171,391 		"/>
		<polygon fill="#B7DCB7" points="632.5,347.4 693,317.5 693,347 743.5,332.3 784.5,281.6 817.5,293.6 862.4,281.6 891.5,251.6 
			919,206.6 936.3,178.3 987,206.6 936.3,219 913.5,263 959,263 959,312 913.5,347 1007.3,311.6 1027.5,266 919,120 650,317.5 		"/>
		<polygon fill="#A8D5A8" points="919,120 852.7,207.2 815.3,218.9 743.5,236.6 837,204 		"/>
		<polygon fill="#C3FFC3" points="919,120.2 883.8,227.7 838,254.6 838,234 798,254.6 755.4,266 734,266 724,287.6 650,317.5 
			743.5,236.6 837,204 		"/>
		<polygon fill="#B7DCB7" points="228.7,278.4 342.1,190.5 314.4,226.5 348.6,207.2 342,226.7 361,218.9 386.6,218.9 378.8,258.5 
			342,288.2 307.5,311.6 351.1,266 313,285.2 313,258 314.3,236.6 287.3,251.1 262.1,282.2 228.7,288.2 214.8,295.7 187.4,251.6 		
			"/>
		<polygon fill="#C3FFC3" points="569.9,290.7 468,256.1 368.7,170 245.5,265.4 348.6,207.2 331.4,236.6 350.9,230.2 368.7,210.2 
			371,195.2 386.6,218.9 399.8,230.2 406.7,271.7 416.3,301.7 461.3,347 494,347 443.3,301.7 425.6,266 419.3,246.2 453.8,276.2 
			443.3,258.5 479.3,286.7 502.9,311.6 556.3,331.7 597.5,330.4 549.8,312 597,312 612.2,304.8 		"/>
		<polygon fill="#C3FFC3" points="187.5,251.6 171.6,274 166.3,301 142,311.6 130,328 111,328 92,335 66,342 109.5,323.6 		"/>
	</g>
	<linearGradient id="SVGID_4_" gradientUnits="userSpaceOnUse" x1="1001.6088" y1="801.6258" x2="1203.609" y2="1055.6259">
		<stop  offset="0" style="stop-color:#DDD488"/>
		<stop  offset="1" style="stop-color:#FFF3A8"/>
	</linearGradient>
	<polygon fill="url(#SVGID_4_)" points="1400,683 1400,966 246.6,471.8 1078.3,612.6 	"/>
	<linearGradient id="SVGID_5_" gradientUnits="userSpaceOnUse" x1="251.0818" y1="262.425" x2="945.1359" y2="1209.5187">
		<stop  offset="0" style="stop-color:#DDD488"/>
		<stop  offset="1" style="stop-color:#FFF3A8"/>
	</linearGradient>
	<path fill="url(#SVGID_5_)" d="M0,496l1,48.5c0,0,840,337.5,845,340.5s185,78.5,226,86.8s90.5,0.9,99-39
		c8.5-39.9-6.4-44.9-6.4-44.9L0,496z"/>
	<path fill="#B3B3B3" d="M532,793v9l8.2,3.4L488,822.5l-26.2-11.9l48.7-14.7l0.5,0.2v-0.4l6-1.8l-6-2.6v-7l-169.4-71.3l0.4-0.1
		l-11.2-4.8l-0.5,0.2l-188.5-79.4l-5.9-2.5l-0.1,0L0,569v8l6.8,2.9L0,582.1v5.5l14.5-4.4l11.1,4.7L0,596.3v5v9.2l510,239V844v-11.5
		l-10.4-4.8l54.8-16.6l24.9,10.2L510,844l15,3.8l5-1.5V861l281,119h35h21.5l60.9-15.7l16.1,6.6l-31,9.1H934l20-5.2l12.7,5.2
		l30.1-0.1L532,793z M1.8,600.8l31.5-9.5l11.1,4.8l-30.9,10.1L1.8,600.8z M20.1,609.2l32.2-9.7l11.3,4.8l-31.6,10.3L20.1,609.2z
		 M38.7,617.6l32.9-10l11.3,4.9l-32.3,10.6L38.7,617.6z M57.2,626.1l33.6-10.2l11.4,4.9l-32.9,10.8L57.2,626.1z M75.7,634.5
		l34.3-10.4l14,6l-33.7,11L75.7,634.5z M97.6,644.5l35.1-10.6l18,7.7l-34.6,11.3L97.6,644.5z M123.4,656.2l36.1-10.9l18,7.7
		l-35.6,11.6L123.4,656.2z M149.2,668l37-11.2l17.9,7.7l-36.5,11.9L149.2,668z M175,679.8l38-11.5l17.9,7.7l-37.4,12.2L175,679.8z
		 M200.8,691.5l39-11.8l17.8,7.6l-38.4,12.5L200.8,691.5z M226.6,703.3l39.9-12.1l17.4,7.4l-39.3,12.8L226.6,703.3z M253.8,715.7
		l40.9-12.4l21.9,9.4l-40.4,13.2L253.8,715.7z M285.2,730l42.1-12.7l20.4,8.7l-41.5,13.6L285.2,730z M315.2,743.7l43.2-13.1
		l20.3,8.7l-42.6,13.9L315.2,743.7z M345.2,757.4l44.4-13.4l20.3,8.7l-43.7,14.3L345.2,757.4z M375.2,771.1l45.5-13.8l20.2,8.7
		l-44.8,14.6L375.2,771.1z M405.3,784.8l46.6-14.1l19.6,8.4l-45.8,15L405.3,784.8z M434.7,798.2l47.7-14.4l17.2,7.4l-46.8,15.3
		L434.7,798.2z M537.1,844.1l56.2-17l20.6,8.4l-55.2,18.1L537.1,844.1z M570.4,858.8l57.7-17.4l22.6,9.2l-56.7,18.5L570.4,858.8z
		 M605.7,874.3l59.2-17.9l22.6,9.2l-58.2,19L605.7,874.3z M641,889.8l60.7-18.4l22.6,9.3l-59.6,19.5L641,889.8z M676.3,905.3
		l62.2-18.8l22.6,9.3l-61.1,20L676.3,905.3z M711.6,920.9l63.7-19.3l22.6,9.3l-62.6,20.5L711.6,920.9z M746.8,936.4l65.2-19.7
		l22.6,9.3l-64,20.9L746.8,936.4z M806,962.4l-23.9-10.5l66.7-20.2l22.6,9.3L806,962.4z M840.4,977.6l-23-10.1l68.2-20.6l28.1,11.5
		L840.4,977.6z"/>
	<path fill="#B3B3B3" d="M110.8,525l1009,356.1l-37.7,12.3L0,494.8v7.8L1283.2,980h30.3h22.8l34.3-10.4L1400,980v-13.9l-1289.3-449
		L110.8,525z M1358.4,965.3l-43,14.1l-26.5-9.7l44-13.3L1358.4,965.3z M1321,952.1l-42.1,13.8l-22.6-8.3l43.2-13.1L1321,952.1z
		 M1287.4,940.3l-41.4,13.5l-22.6-8.3l42.4-12.8L1287.4,940.3z M1253.9,928.4l-40.6,13.3l-22.6-8.3l41.6-12.6L1253.9,928.4z
		 M1220.4,916.6l-39.9,13.1l-22.6-8.3l40.9-12.4L1220.4,916.6z M1186.9,904.8l-39.2,12.8l-22.6-8.3l40.1-12.1L1186.9,904.8z
		 M1153.4,892.9l-38.4,12.6l-22.6-8.3l39.3-11.9L1153.4,892.9z"/>
	<polygon fill="#DEAB0B" points="679,908 679,970 684,970 690,970 693,908 686,905 	"/>
	<polygon fill="#DEAB0B" points="289,743.3 289,786 292.6,786 296.7,786 298.8,743.4 293.9,741.3 	"/>
	<polygon fill="#DEAB0B" points="23,621.3 23,654 25.9,654 29.1,654 30.6,621.4 26.8,619.8 	"/>
	<polygon fill="#F66E00" points="862.4,652.7 853.5,780.1 843,775 849.1,649 	"/>
	<linearGradient id="SVGID_6_" gradientUnits="userSpaceOnUse" x1="186.1413" y1="603.8074" x2="218.1411" y2="647.4739">
		<stop  offset="0" style="stop-color:#DDD488"/>
		<stop  offset="1" style="stop-color:#FFF3A8"/>
	</linearGradient>
	<polygon fill="url(#SVGID_6_)" points="194.1,607.2 214.8,645.5 183.7,607.9 	"/>
	<linearGradient id="SVGID_7_" gradientUnits="userSpaceOnUse" x1="523.9515" y1="902.7149" x2="590.9191" y2="994.0977">
		<stop  offset="0" style="stop-color:#DDD488"/>
		<stop  offset="1" style="stop-color:#FFF3A8"/>
	</linearGradient>
	<polygon fill="url(#SVGID_7_)" points="537,912.3 597.5,980 515.3,913.9 	"/>
	<linearGradient id="SVGID_8_" gradientUnits="userSpaceOnUse" x1="290.4942" y1="783.3746" x2="311.9191" y2="812.6107">
		<stop  offset="0" style="stop-color:#DDD488"/>
		<stop  offset="1" style="stop-color:#FFF3A8"/>
	</linearGradient>
	<polygon fill="url(#SVGID_8_)" points="296.7,786 307.7,812.7 289,786 	"/>
	<linearGradient id="SVGID_9_" gradientUnits="userSpaceOnUse" x1="681.2385" y1="967.5928" x2="691.9741" y2="982.2425">
		<stop  offset="0" style="stop-color:#DDD488"/>
		<stop  offset="1" style="stop-color:#FFF3A8"/>
	</linearGradient>
	<polygon fill="url(#SVGID_9_)" points="679,970 683.3,980 693,980 690,970 	"/>
	<polygon fill="#E5FFB9" points="1400,733.9 76,445 1400,845.3 	"/>
	<g>
		<path fill="#B9C2CC" d="M1161.4,864.3c0,0,33.1-8.6,33.6-35.1s-18.5-87.1-57.5-143.1s-73-92.5-115.5-119.5
			c-42.5-27-359.9-81.5-359.9-81.5L0,347v149c0,0,953.8,372.5,1041.3,388.5s120.6,7.5,120.6,7.5L1161.4,864.3z"/>
		<path fill="#F7931E" d="M1193.7,814.4c0,0-3.2,17.6-39.9,20.9c-36.7,3.3-90.8-10-130.7-44.7c-40-34.7-160.7-138-160.7-138L431,534
			L0,403.3v75.3l941.7,334.7l8,6.7c0,0,61.5,38.7,141.5,48.7c44.3,5.5,70.4-1.8,85-9.5c9.8-5.2,18.2-17.5,18.8-28.5L1193.7,814.4z"
			/>
		<path fill="#333333" d="M1162.1,865c-15.5,4.9-38.3,7.8-70.9,3.7c-80-10-141.5-48.7-141.5-48.7l-8-6.7L0,478.7V496
			c0,0,953.8,372.5,1041.3,388.5s120.6,7.5,120.6,7.5l2.7-4.2C1169.2,880.5,1168.1,871,1162.1,865z"/>
		<polygon fill="#0071BC" points="1068.5,769 1060.5,775.8 1075.5,791.1 1113,788.3 1104,769 		"/>
		<polygon fill="#0071BC" points="1108.5,769 1117,787 1158,783.5 1148,764.5 		"/>
		<polygon fill="#0071BC" points="1152.5,764.5 1162,782.5 1185,780.1 1176.5,760 		"/>
		<path fill="#1B1464" d="M1137.5,686.1c-39-56-73-92.5-115.5-119.5c-0.6-0.4-1.2-0.8-1.9-1.1L929,582c0,0,2.7,4,16.7,14
			s36.7,40,52,55.3C1013,666.7,1047,722,1047,722s111,16,108.6-7.2C1150.1,705.2,1144.1,695.6,1137.5,686.1z"/>
		<path fill="#080053" d="M1137.5,686.1c-20.5-29.4-39.5-53.4-59.2-73.5l-108.9,7c9.9,11.3,20.2,23.6,28.3,31.8
			C1013,666.7,1047,722,1047,722s111,16,108.6-7.2C1150.1,705.2,1144.1,695.6,1137.5,686.1z"/>
		<path fill="#1B1464" d="M1022,566.5c-42.5-27-359.9-81.5-359.9-81.5L0,347v23.5L929,582l99.3-6l3-3.3
			C1028.3,570.6,1025.2,568.5,1022,566.5z"/>
		<polygon fill="#080053" points="987,590 1002,609 1049,606 1027.5,587.5 		"/>
		<polygon fill="#08003D" points="1027.5,587.5 1018,595 1022.8,607.7 1049,606 		"/>
		<polygon fill="#0C055A" points="1018,595 993,597.6 987,590 1027.5,587.5 		"/>
		<path fill="#F66E00" d="M807.1,763.8l5.2-88.6l-181.9-53.6c-36.7-10.8-73.5,16.7-73.5,54.9v0L807.1,763.8z"/>
		<path fill="#F66E00" d="M875.8,787.9c0,0,4.4-73.3,4.4-73.3c-0.1,2.5,11.5,11.3,13.2,12.9c9.2,8.8,18.5,17.5,27.9,26.1
			c32,29,68.3,53.2,107.1,72.1c27.6,13.4,56.2,26.7,86.8,31.2c24.7,3.6,65.9,3.5,79.2-22.7c0,0,3.6,24.3-41.9,33.5
			s-129.7-7.7-178.9-34.6C924.3,806,875.8,787.9,875.8,787.9z"/>
		<path fill="#F66200" d="M1189.1,849.2c-5.5,3.9-12.8,7.9-21.7,10.3c-22,6-41,12.5-132.3-15.5c-67.7-20.7-129.9-64.5-157.6-85.8
			c-0.9,15.7-1.8,29.7-1.8,29.7s48.5,18.1,97.8,45c49.2,26.9,133.4,43.8,178.9,34.6C1173.3,863.3,1183.8,856,1189.1,849.2z"/>
		<polygon fill="#F66200" points="809.4,724.8 597.5,646.4 811,697.5 		"/>
		<polygon fill="#F66200" points="808.7,736 807.1,763.8 557,676.6 		"/>
		<path fill="#F66E00" d="M490,652.8l-0.3-69.1l-219-69.3c-27.5-8.8-55.6,11.8-55.6,40.7v0L490,652.8z"/>
		<path fill="#F66E00" d="M166,538v-52L65.1,450.4c-23.5-8.3-48.1,9.1-48.1,34l0,0L166,538z"/>
		<polygon fill="#F66200" points="490,652.8 234.5,562 489.9,633 		"/>
		<polygon fill="#F66200" points="490,615.5 258,544.5 489.7,594 		"/>
		<polygon fill="#F66200" points="166,538 30.3,489.2 166.3,525 		"/>
		<polygon fill="#F66200" points="166,514.7 43,475 166,499 		"/>
		<polygon fill="#251E6B" points="817.7,520.7 969.3,553.3 858.3,532 		"/>
		<path fill="#4D4D4D" d="M389,513.2c0,0-2.7-16.8,0-29.9c2.7-13,11-14,11-14l25.7,6.3c0,0-6,3.6-8.6,16.7c-2.7,13,0,29.9,0,29.9
			L389,513.2z"/>
		<path fill="#4D4D4D" d="M352,502.2c0,0-2.5-15.9,0-28.2c2.5-12.3,10.4-13.2,10.4-13.2l24.2,5.9c0,0-5.6,3.4-8.2,15.7
			c-2.5,12.3,0,28.2,0,28.2L352,502.2z"/>
		<path fill="#4D4D4D" d="M315.4,491.5c0,0-2.4-15.2,0-27c2.4-11.8,9.9-12.7,9.9-12.7l23.2,5.7c0,0-5.4,3.3-7.8,15.1
			c-2.4,11.8,0,27,0,27L315.4,491.5z"/>
		<path fill="#4D4D4D" d="M279.4,481.5c0,0-2.4-15.2,0-27c2.4-11.8,9.9-12.7,9.9-12.7l23.2,5.7c0,0-5.4,3.3-7.8,15.1
			c-2.4,11.8,0,27,0,27L279.4,481.5z"/>
		<path fill="#4D4D4D" d="M246.6,471.8c0,0-2.3-14.7,0-26.1c2.3-11.4,9.6-12.2,9.6-12.2l22.4,5.5c0,0-5.2,3.2-7.5,14.6
			c-2.3,11.4,0,26.1,0,26.1L246.6,471.8z"/>
		<path fill="#4D4D4D" d="M50.9,413.7c0,0-1.5-9.3,0-16.5c1.5-7.2,6.1-7.7,6.1-7.7l14.2,3.5c0,0-3.3,2-4.8,9.2
			c-1.5,7.2,0,16.5,0,16.5L50.9,413.7z"/>
		<path fill="#4D4D4D" d="M28.8,407.3c0,0-1.4-8.9,0-15.8c1.4-6.9,5.8-7.4,5.8-7.4l13.6,3.3c0,0-3.2,1.9-4.6,8.8
			c-1.4,6.9,0,15.8,0,15.8L28.8,407.3z"/>
		<path fill="#4D4D4D" d="M7.6,399.9c0,0-1.4-8.5,0-15.2c1.4-6.6,5.6-7.1,5.6-7.1l13,3.2c0,0-3,1.8-4.4,8.5c-1.4,6.6,0,15.2,0,15.2
			L7.6,399.9z"/>
		<path fill="#D7DCE2" d="M586.8,514.7L913,587.5c0,0,39.7,30.5,56.3,58C986,673,986,673,986,673s-61.9-72-76-78
			C896,589,586.8,514.7,586.8,514.7z"/>
		<polygon fill="#D7DCE2" points="441.7,479.7 207.7,422 231,433.5 463.7,490 		"/>
		<polygon fill="#D7DCE2" points="76,394 158.5,412 89,401.4 		"/>
		<polygon fill="#302A6F" points="1075,620.6 1117,670 1075,626.7 1031.4,624 		"/>
	</g>
	<g>
		<polygon fill="#E6AC00" points="175,577.1 175,585.8 172,584.1 172,575.7 		"/>
		<rect x="175.4" y="577.1" fill="#AD6D01" width="5.8" height="8.7"/>
		<polygon fill="#FFF9AC" points="171.5,575.7 181.1,575.7 181.1,577.1 175.4,577.1 		"/>
		<polygon fill="#44484E" points="177.7,414 181.1,605.2 183.7,607.9 194.1,607.2 190.5,414 		"/>
		<polygon fill="#D39404" points="200,583.4 192.6,585.1 188,582.5 188,592 193.3,594 200,592.3 		"/>
		<polygon fill="#FFF6AA" points="200.9,583.4 195.5,580.7 187.4,582.5 192.8,585.1 		"/>
		<polygon fill="#5C5E6A" points="180,363.7 180,414.8 203.4,412.2 202.5,362.3 		"/>
		<polygon fill="#A8A9B2" points="180,364 167.6,364 166.3,408.2 180,414.8 		"/>
		<polygon fill="#B91215" points="186.4,496.7 186.4,511.1 193.2,510.4 193.2,496.2 		"/>
		<polygon fill="#BFC5C5" points="187,496.6 194,496.2 194,488 187,488.8 		"/>
		<polygon fill="#BFC5C5" points="187,511.1 194,510.4 194,519 187,519 		"/>
	</g>
	<g>
		<polygon fill="#E6AC00" points="498,850 498,868 490,864.5 490,847 		"/>
		<rect x="498" y="850" fill="#AD6D01" width="12" height="18"/>
		<polygon fill="#FFF9AC" points="490,847 510,847 510,850 498,850 		"/>
		<polygon fill="#44484E" points="502.9,511 510,908.3 515.3,913.9 537,912.3 529.5,511 		"/>
		<polygon fill="#D39404" points="551,863 534.1,866.6 523,861.3 523,881 535.6,885 551,881.5 		"/>
		<polygon fill="#FFF6AA" points="551,863 539.8,857.5 523,861.3 534.1,866.6 		"/>
		<polygon fill="#5C5E6A" points="508,407 508,513 556.3,507.7 554.7,404 		"/>
		<polygon fill="#A8A9B2" points="516,422 516,445 527.5,426 551,425.5 545.5,422 		"/>
		<polygon fill="#4D4F5C" points="549.7,425.5 547.3,440.7 516,445 527.5,426 		"/>
		<polygon fill="#A8A9B2" points="516,465 516,488 527.5,469 551,468.5 545.5,465 		"/>
		<polygon fill="#4D4F5C" points="549.7,468.5 547.3,483.7 516,488 527.5,469 		"/>
		<polygon fill="#A8A9B2" points="508,407 482,407 479.3,499 508,513 		"/>
		<polygon fill="#B91215" points="521,683 521,713 535,711.5 535,682 		"/>
		<polygon fill="#BFC5C5" points="521,682.9 535,682 535,665 521,666.8 		"/>
		<polygon fill="#BFC5C5" points="521,713 535,711.5 535,729 521,729 		"/>
	</g>
	<polygon fill="#FFEC75" points="0,980 0,813 63.7,818.2 46.6,888.9 104.6,928.4 178.2,920.1 331.4,980 	"/>
	<polygon fill="#FFEC75" points="1.8,641.2 117.3,714.5 123.4,744 60.7,706.9 7,697.5 	"/>
	<linearGradient id="SVGID_10_" gradientUnits="userSpaceOnUse" x1="-102.1273" y1="831.9406" x2="376.5989" y2="889.7578">
		<stop  offset="0" style="stop-color:#DDD488"/>
		<stop  offset="1" style="stop-color:#FFF3A8"/>
	</linearGradient>
	<polygon fill="url(#SVGID_10_)" points="0.1,758.1 423.5,980 410,980 0,765.4 	"/>
	<linearGradient id="SVGID_11_" gradientUnits="userSpaceOnUse" x1="-130.8412" y1="798.0574" x2="486.9195" y2="872.6663">
		<stop  offset="0" style="stop-color:#DDD488"/>
		<stop  offset="1" style="stop-color:#FFF3A8"/>
	</linearGradient>
	<polygon fill="url(#SVGID_11_)" points="0,711.5 548.6,980 528,980 0,718 	"/>
	<path fill="#B3B3B3" d="M161,784.7l0.4-0.1l-10.9-5.4l-0.5,0.1L0,706.9v9.5l0.1,0l-0.1,0v6.3l8.7-2.1l17.5,8.6L0,736.3v5.8
		l34.8-8.6l17.4,8.6l-38,10.3L0,745v13.1l316.2,168.6l0,0l5.9,3.1l0-0.2L423.5,980h33.4l-6.3-3.1l59.5-14.7l22.3,10.4L505,980h37.5
		l4-1l2.1,1H575L326.5,864.7L161,784.7z M21.4,756.1l39.5-9.8l17.4,8.5l-39,10.6L21.4,756.1z M46.6,769.2l40.5-10l16.9,8.3
		l-39.9,10.8L46.6,769.2z M73.1,783l41.5-10.3l21.4,10.5l-41,11.1L73.1,783z M103.7,798.9l42.7-10.6l19.9,9.8l-42.1,11.4
		L103.7,798.9z M133,814.1l43.8-10.8l19.8,9.7l-43.3,11.7L133,814.1z M162.3,829.3l45-11.1l19.8,9.7l-44.4,12L162.3,829.3z
		 M191.6,844.5l46.1-11.4l19.7,9.7L212,855.1L191.6,844.5z M220.9,859.7l47.3-11.7l19.2,9.4l-46.5,12.6L220.9,859.7z M249.5,874.6
		l48.4-12l16.8,8.2l-47.5,12.9L249.5,874.6z M496.3,955.7l-57,15.4l-23-11.6l57.7-14.3L496.3,955.7z M460,938.8l-55.3,15l-23-11.5
		l55.9-13.8L460,938.8z M423.7,921.9l-53.5,14.5l-21.1-10.6l54.2-13.4L423.7,921.9z M389.6,906.1l-51.9,14.1l-21.2-10.7l-3.8-2
		l52.2-12.9L389.6,906.1z M301.5,901.7l-25.6-13.3l49.4-12.2l0.5,0.2l25.3,11.8L301.5,901.7z"/>
	<path opacity="0.2" fill="#F2F2F2" d="M0,496l902.5,413L52.4,599.4c0,0,585.4,274.3,570.7,269.6c-14.6-4.7-519.1-209.8-520.9-210.7
		c-1.9-0.9,431.3,242.6,413.1,238.1s-417-161.1-417-161.1s329.5,229.9,306.5,218.4C381.8,942.2,0,765.4,0,765.4V496z"/>
	<polygon opacity="0.2" fill="#F2F2F2" points="0,0 1404.3,0 530.3,47 1397.4,126.4 530.3,105.8 1331.8,312.6 530.3,173.9 
		1171.4,484.2 515.2,242.1 967.5,550.6 445.1,303.8 751.2,694.8 387.7,338.7 497.7,733.5 327.1,373.1 333.5,722.3 244,396.7 
		244,745.1 148.8,408.2 107.4,742.2 67.2,408.2 23.6,745.1 0,435.4 	"/>
</g>
</svg>
